<svg width="44" height="44" viewBox="0 0 44 44" fill="none" xmlns="http://www.w3.org/2000/svg">
<path d="M39.6 22.0081C39.6 25.5288 38.567 28.808 36.7878 31.5592C36.6472 31.7766 36.5889 32.038 36.632 32.2934L37.2047 35.6848C37.3404 36.488 38.3163 36.7934 38.8406 36.1702C42.0603 32.3427 44 27.402 44 22.0081C44 19.7145 43.6493 17.5028 42.9985 15.4237C42.808 14.8152 42.0901 14.5765 41.5527 14.9195L39.4316 16.2735C39.0486 16.518 38.8806 16.9886 38.9985 17.4276C39.3908 18.8881 39.6 20.4237 39.6 22.0081Z" fill="#407BFF"/>
<path d="M31.8029 36.6335C29.0062 38.5062 25.6432 39.5984 22.0251 39.5984C19.827 39.5984 17.723 39.1953 15.7829 38.4589C15.5531 38.3717 15.2997 38.3652 15.0681 38.4478L11.716 39.6432C10.9386 39.9204 10.8188 40.9529 11.5442 41.3468C14.6601 43.0389 18.2304 44 22.0251 44C26.3842 44 30.4472 42.7317 33.8655 40.544L33.976 40.4714C34.389 40.2006 34.5437 39.6694 34.3405 39.2191L33.3619 37.0494C33.0945 36.4567 32.3431 36.2718 31.8029 36.6335Z" fill="#373C65"/>
<path d="M9.49885 34.4015C6.34684 31.2199 4.4 26.8414 4.4 22.0081C4.4 19.009 5.1496 16.185 6.47161 13.7135C6.67759 13.3284 6.63343 12.8532 6.34268 12.5274L4.64186 10.6213C4.20697 10.1339 3.42924 10.1853 3.09458 10.7463C1.12921 14.041 0 17.8927 0 22.0081C0 28.0898 2.46592 33.5953 6.45209 37.5787C6.47772 37.6043 6.50535 37.6278 6.53465 37.6491C6.79355 37.8374 7.14667 37.8278 7.39505 37.6259L9.44102 35.9622C9.92222 35.571 9.93537 34.8421 9.49885 34.4015Z" fill="#407BFF"/>
<path d="M38.1055 7.01538C34.0889 2.69943 28.3596 0 22 0C15.2892 0 9.28017 3.00582 5.24489 7.74505C5.22683 7.76626 5.21035 7.78878 5.19553 7.81237C5.03682 8.06505 5.09338 8.3967 5.32686 8.58245L7.52404 10.3305C7.95539 10.6737 8.58061 10.6024 8.95056 10.1937C12.1709 6.63631 16.8246 4.40163 22 4.40163C26.3039 4.40163 30.2469 5.94702 33.3049 8.51336C33.5054 8.68165 33.7609 8.77185 34.0223 8.75831L37.431 8.58175C38.2417 8.53975 38.6587 7.60978 38.1055 7.01538Z" fill="#373C65"/>
<path d="M18.5511 23.0716L13.2932 18.5131C12.4919 17.8183 11.3012 18.6802 11.7103 19.659L18.1114 34.9716C18.3933 35.6458 19.2779 35.8024 19.7739 35.2659L39.2317 14.2179C40.012 13.3737 38.9912 12.093 37.9948 12.6661L19.7084 23.1833C19.3382 23.3962 18.8738 23.3514 18.5511 23.0716Z" fill="#407BFF"/>
<path d="M23.0536 18.0683C23.0536 19.7314 21.7059 21.0796 20.0433 21.0796C18.3808 21.0796 17.0331 19.7314 17.0331 18.0683C17.0331 16.4051 18.3808 15.0569 20.0433 15.0569C21.7059 15.0569 23.0536 16.4051 23.0536 18.0683Z" fill="#373C65"/>
</svg>
