<svg width="138" height="136" viewBox="0 0 138 136" fill="none" xmlns="http://www.w3.org/2000/svg">
<path d="M61.0042 90.4196C59.8855 90.4196 58.8478 90.2456 57.891 89.8974C56.9342 89.5347 56.1393 88.9762 55.5063 88.2219C54.8881 87.453 54.5054 86.4738 54.3582 85.2843H57.9793C58.097 85.734 58.3105 86.0967 58.6196 86.3723C58.9434 86.6479 59.3335 86.851 59.7898 86.9816C60.2462 87.0976 60.7319 87.1557 61.2471 87.1557C61.6004 87.1557 61.9537 87.1194 62.307 87.0468C62.6602 86.9598 62.9546 86.8147 63.1902 86.6116C63.4257 86.4086 63.5434 86.1257 63.5434 85.763C63.5434 85.4874 63.4772 85.2698 63.3447 85.1102C63.2122 84.9361 63.0209 84.7983 62.7706 84.6968C62.5351 84.5807 62.2407 84.4792 61.8874 84.3921C61.6666 84.3341 61.4385 84.2833 61.203 84.2398C60.9674 84.1963 60.7393 84.1455 60.5185 84.0875C60.2977 84.0295 60.0769 83.9642 59.8561 83.8916C59.1937 83.7321 58.5607 83.5507 57.9572 83.3476C57.3537 83.13 56.8164 82.8544 56.3454 82.5208C55.889 82.1871 55.5284 81.7519 55.2634 81.2152C54.9985 80.6784 54.866 80.0111 54.866 79.2132C54.866 78.4444 54.9985 77.7916 55.2634 77.2548C55.5431 76.7036 55.9111 76.2611 56.3674 75.9275C56.8385 75.5793 57.3463 75.3182 57.891 75.1441C58.4503 74.9555 59.0023 74.825 59.547 74.7524C60.1063 74.6799 60.6215 74.6436 61.0926 74.6436C62.1377 74.6436 63.065 74.8322 63.8746 75.2094C64.699 75.5866 65.3614 76.1451 65.8618 76.8849C66.377 77.6103 66.6862 78.5097 66.7892 79.5832H63.3226C63.2638 79.206 63.1092 78.8941 62.859 78.6475C62.6235 78.4009 62.3143 78.2123 61.9316 78.0817C61.5636 77.9512 61.1367 77.8859 60.651 77.8859C60.3566 77.8859 60.0695 77.9149 59.7898 77.9729C59.5249 78.0164 59.2894 78.089 59.0833 78.1905C58.8919 78.2921 58.73 78.4299 58.5975 78.604C58.4798 78.7635 58.4209 78.9666 58.4209 79.2132C58.4209 79.4744 58.5092 79.6992 58.6858 79.8878C58.8625 80.0619 59.1127 80.2142 59.4366 80.3448C59.7751 80.4753 60.1873 80.6059 60.673 80.7364C61.0116 80.8525 61.3575 80.9468 61.7108 81.0193C62.0788 81.0774 62.4321 81.1571 62.7706 81.2587C63.3889 81.4038 63.9556 81.5778 64.4708 81.7809C65.0007 81.9695 65.4644 82.2161 65.8618 82.5208C66.2593 82.8109 66.5684 83.2026 66.7892 83.6958C67.0247 84.1745 67.1425 84.7838 67.1425 85.5236C67.1425 86.4231 66.9732 87.1847 66.6346 87.8084C66.2961 88.4177 65.8324 88.9182 65.2436 89.3099C64.6548 89.7016 63.9924 89.9845 63.2564 90.1585C62.5351 90.3326 61.7844 90.4196 61.0042 90.4196Z" fill="#407BFF"/>
<path d="M76.6546 90.4196C75.0943 90.4196 73.7401 90.0933 72.5919 89.4405C71.4585 88.7877 70.5826 87.8737 69.9644 86.6987C69.3609 85.5091 69.0591 84.1092 69.0591 82.499C69.0591 81.295 69.2284 80.2142 69.567 79.2568C69.9202 78.2993 70.4281 77.4797 71.0905 76.7979C71.7529 76.1016 72.5478 75.5721 73.4751 75.2094C74.4172 74.8322 75.4771 74.6436 76.6546 74.6436C77.847 74.6436 78.9289 74.8395 79.9004 75.2312C80.8867 75.6228 81.6963 76.2176 82.3292 77.0155C82.9769 77.7989 83.3964 78.7925 83.5878 79.9966H80.0108C79.9078 79.5324 79.7164 79.1552 79.4367 78.8651C79.1571 78.5604 78.8038 78.3356 78.3769 78.1905C77.95 78.0455 77.4569 77.9729 76.8975 77.9729C76.1321 77.9729 75.4844 78.1035 74.9545 78.3646C74.4246 78.6257 73.9977 78.9811 73.6738 79.4308C73.35 79.8661 73.1145 80.3593 72.9673 80.9105C72.8201 81.4618 72.7465 82.0275 72.7465 82.6078C72.7465 83.3767 72.879 84.1093 73.1439 84.8056C73.4236 85.4874 73.8578 86.0386 74.4467 86.4593C75.0502 86.88 75.8451 87.0904 76.8313 87.0904C77.4054 87.0904 77.9353 87.0106 78.4211 86.851C78.9068 86.6914 79.3042 86.4448 79.6134 86.1112C79.9225 85.763 80.1065 85.3351 80.1654 84.8273H76.191V81.8244H83.8969V82.5425C83.8969 84.1963 83.6319 85.6107 83.102 86.7857C82.5721 87.9608 81.7699 88.8602 80.6953 89.484C79.6355 90.1078 78.2886 90.4196 76.6546 90.4196Z" fill="#407BFF"/>
<path d="M66.3862 51.1767C66.721 51.5681 67.0865 51.9679 67.4683 52.3855C67.6633 52.5988 67.8625 52.8167 68.064 53.0405C68.271 52.8107 68.4756 52.5873 68.6757 52.3687C69.0567 51.9525 69.4213 51.5542 69.755 51.1643L82.1818 57.8443V67.95H79.6182V59.2338L68.0821 65.4236L53.9824 57.8443L66.3862 51.1767Z" fill="#407BFF"/>
<path d="M59.1096 68.2027L68.0821 73.0029L77.0546 68.2027V61.8866L68.0821 66.6868L59.1096 61.8866V68.2027Z" fill="#407BFF"/>
<path d="M68.025 43.86C67.1735 43.86 66.3569 44.1934 65.7548 44.7867C65.1527 45.3801 64.8144 46.1849 64.8144 47.0241V47.2547C64.9444 48.9883 66.4046 50.3825 68.025 52.1865C69.717 50.3035 71.2356 48.8773 71.2356 47.0241C71.2356 46.1849 70.8974 45.3801 70.2953 44.7867C69.6932 44.1934 68.8765 43.86 68.025 43.86ZM68.025 45.504C68.3306 45.504 68.6294 45.5933 68.8834 45.7607C69.1375 45.928 69.3355 46.1659 69.4523 46.4442C69.5692 46.7225 69.5996 47.0286 69.5398 47.324C69.4801 47.6193 69.3327 47.8906 69.1165 48.1034C68.9003 48.3162 68.6248 48.461 68.325 48.5195C68.0253 48.578 67.7146 48.5475 67.4324 48.432C67.1502 48.3164 66.9091 48.121 66.7396 47.8704C66.5702 47.6198 66.48 47.3252 66.4804 47.0241C66.481 46.6207 66.6439 46.2341 66.9336 45.9491C67.2232 45.664 67.6157 45.504 68.025 45.504Z" fill="#407BFF"/>
</svg>
