<svg width="54" height="54" viewBox="0 0 54 54" fill="none" xmlns="http://www.w3.org/2000/svg">
<path fill-rule="evenodd" clip-rule="evenodd" d="M41.4214 10.6816C40.9988 4.37234 32.177 1.68749 27 1.6875C21.8231 1.68749 13.0013 4.37234 12.5787 10.6816L8.61675 36.6883C8.54674 37.037 8.48576 37.4023 8.42346 37.7754C8.00002 40.3118 7.51568 43.213 3.72113 43.7496C-1.7199 44.519 -0.731829 51.6363 3.70552 51.6363H22.3311H26.9999H31.6919H40.9884H50.2944C54.7317 51.6363 55.72 44.519 50.279 43.7496C46.4844 43.213 46.0001 40.3118 45.5766 37.7754C45.5143 37.4023 45.4534 37.037 45.3833 36.6883L41.4214 10.6816ZM23.4729 37.549C23.4729 39.9777 21.5163 41.9466 19.1026 41.9466C16.689 41.9466 14.7323 39.9777 14.7323 37.549C14.7323 35.1204 16.689 33.1515 19.1026 33.1515C21.5163 33.1515 23.4729 35.1204 23.4729 37.549ZM35.1069 41.9466C37.5205 41.9466 39.4772 39.9778 39.4772 37.5491C39.4772 35.1204 37.5205 33.1516 35.1069 33.1516C32.6932 33.1516 30.7366 35.1204 30.7366 37.5491C30.7366 39.9778 32.6932 41.9466 35.1069 41.9466Z" fill="white"/>
<path d="M31.9118 52.271C31.8349 53.2936 31.1875 53.7611 30.1057 53.7611H24.1693C23.0874 53.7611 22.4401 53.2936 22.3631 52.271C22.3543 52.1536 22.503 52.0582 22.6852 52.0582H31.5898C31.7719 52.0582 31.9206 52.1536 31.9118 52.271Z" fill="white"/>
<path d="M30.0661 0.225354C29.4539 0.0525825 27.5722 0 27.1374 0C26.7026 0 24.8209 0.0525825 24.2087 0.225354C23.8166 0.336016 23.1332 0.641507 23.0008 1.10423C22.9095 1.42349 22.8654 1.67767 22.8468 1.83914C22.8382 1.91419 22.9159 1.96548 22.9901 1.93909C23.4832 1.76373 24.6247 1.47231 27.1374 1.47231C29.6501 1.47231 30.7916 1.76373 31.2847 1.93909C31.3589 1.96548 31.4366 1.91419 31.428 1.83914C31.4094 1.67767 31.3653 1.42349 31.274 1.10423C31.1416 0.641507 30.4582 0.336016 30.0661 0.225354Z" fill="white"/>
</svg>
